<svg width="57" height="52" viewBox="0 0 57 52" fill="none" xmlns="http://www.w3.org/2000/svg">
<path d="M28.4934 25.8914L34.9125 31.0266M28.4934 25.8914V49V25.8914ZM28.4934 25.8914L22.0743 31.0266L28.4934 25.8914Z" stroke="white" stroke-width="5.13526" stroke-linecap="round" stroke-linejoin="round"/>
<path d="M10.6071 18.4886C8.17871 19.0997 6.05699 20.5765 4.64062 22.6416C3.22425 24.7067 2.61072 27.218 2.91531 29.7035C3.21989 32.1891 4.42162 34.4778 6.29472 36.1398C8.16781 37.8018 10.5833 38.7227 13.0875 38.7293H15.6551" stroke="white" stroke-width="5.13526" stroke-linecap="round" stroke-linejoin="round"/>
<path d="M38.3273 13.4074C37.4497 9.93231 35.2836 6.92092 32.268 4.98368C29.2525 3.04644 25.6131 2.32832 22.0877 2.97488C18.5623 3.62145 15.4146 5.58432 13.2828 8.4656C11.1509 11.3469 10.1944 14.931 10.6072 18.4913C10.6072 18.4913 11 20.756 11.8037 22.0398" stroke="white" stroke-width="5.13526" stroke-linecap="round" stroke-linejoin="round"/>
<path d="M41.3314 38.7295C43.1443 38.7283 44.9363 38.3431 46.5896 37.5994C48.2428 36.8557 49.7199 35.7703 50.9234 34.4146C52.1269 33.0589 53.0297 31.4637 53.5723 29.7339C54.1149 28.0042 54.285 26.1791 54.0714 24.3789C53.8579 22.5787 53.2655 20.8441 52.3332 19.2893C51.4009 17.7346 50.15 16.3949 48.6626 15.3584C47.1753 14.3219 45.4853 13.6122 43.7039 13.276C41.9225 12.9397 40.0901 12.9846 38.3273 13.4076L34.9124 14.337" stroke="white" stroke-width="5.13526" stroke-linecap="round" stroke-linejoin="round"/>
</svg>
