<svg width="50" height="50" viewBox="0 0 50 50" fill="none" xmlns="http://www.w3.org/2000/svg">
<path d="M9.72222 32.6389C9.72222 32.0864 9.94172 31.5564 10.3324 31.1658C10.7231 30.775 11.253 30.5556 11.8056 30.5556H21.5278C22.0803 30.5556 22.6102 30.775 23.0009 31.1658C23.3916 31.5564 23.6111 32.0864 23.6111 32.6389C23.6111 33.1914 23.3916 33.7213 23.0009 34.112C22.6102 34.5027 22.0803 34.7222 21.5278 34.7222H11.8056C11.253 34.7222 10.7231 34.5027 10.3324 34.112C9.94172 33.7213 9.72222 33.1914 9.72222 32.6389ZM11.8056 15.2778C11.253 15.2778 10.7231 15.4973 10.3324 15.888C9.94172 16.2787 9.72222 16.8086 9.72222 17.3611C9.72222 17.9136 9.94172 18.4435 10.3324 18.8342C10.7231 19.2249 11.253 19.4444 11.8056 19.4444H21.5278C22.0803 19.4444 22.6102 19.2249 23.0009 18.8342C23.3916 18.4435 23.6111 17.9136 23.6111 17.3611C23.6111 16.8086 23.3916 16.2787 23.0009 15.888C22.6102 15.4973 22.0803 15.2778 21.5278 15.2778H11.8056ZM41.0556 13.1111C41.4457 13.5017 41.6648 14.0312 41.6648 14.5833C41.6648 15.1354 41.4457 15.6649 41.0556 16.0556L35.5 21.6111C35.1094 22.0012 34.5799 22.2204 34.0278 22.2204C33.4757 22.2204 32.9462 22.0012 32.5556 21.6111L29.7778 18.8333C29.4098 18.4384 29.2094 17.9161 29.219 17.3763C29.2285 16.8366 29.4471 16.3216 29.8288 15.9399C30.2105 15.5582 30.7255 15.3396 31.2652 15.3301C31.8049 15.3205 32.3273 15.5209 32.7222 15.8889L34.0278 17.1944L38.1111 13.1111C38.5017 12.721 39.0312 12.5018 39.5833 12.5018C40.1354 12.5018 40.6649 12.721 41.0556 13.1111ZM41.0556 31.3333C41.2602 31.1426 41.4244 30.9126 41.5383 30.657C41.6521 30.4015 41.7134 30.1256 41.7183 29.8459C41.7232 29.5662 41.6718 29.2883 41.567 29.0289C41.4622 28.7695 41.3063 28.5338 41.1084 28.336C40.9106 28.1382 40.675 27.9822 40.4155 27.8774C40.1561 27.7727 39.8783 27.7212 39.5985 27.7261C39.3188 27.7311 39.0429 27.7923 38.7874 27.9062C38.5318 28.02 38.3018 28.1842 38.1111 28.3889L34.0278 32.4722L32.7222 31.1667C32.5315 30.962 32.3015 30.7978 32.0459 30.6839C31.7904 30.5701 31.5145 30.5088 31.2348 30.5039C30.9551 30.499 30.6772 30.5504 30.4178 30.6552C30.1584 30.76 29.9227 30.916 29.7249 31.1138C29.5271 31.3116 29.3711 31.5473 29.2663 31.8067C29.1615 32.0661 29.1101 32.3439 29.115 32.6237C29.12 32.9034 29.1812 33.1793 29.2951 33.4348C29.4089 33.6904 29.5731 33.9204 29.7778 34.1111L32.5556 36.8889C32.9462 37.279 33.4757 37.4982 34.0278 37.4982C34.5799 37.4982 35.1094 37.279 35.5 36.8889L41.0556 31.3333ZM6.25 0C4.5924 0 3.00268 0.65848 1.83058 1.83058C0.65848 3.00268 0 4.5924 0 6.25V43.75C0 45.4076 0.65848 46.9973 1.83058 48.1694C3.00268 49.3415 4.5924 50 6.25 50H43.75C45.4076 50 46.9973 49.3415 48.1694 48.1694C49.3415 46.9973 50 45.4076 50 43.75V6.25C50 4.5924 49.3415 3.00268 48.1694 1.83058C46.9973 0.65848 45.4076 0 43.75 0H6.25ZM4.16667 6.25C4.16667 5.69747 4.38616 5.16756 4.77686 4.77686C5.16756 4.38616 5.69747 4.16667 6.25 4.16667H43.75C44.3025 4.16667 44.8324 4.38616 45.2231 4.77686C45.6138 5.16756 45.8333 5.69747 45.8333 6.25V43.75C45.8333 44.3025 45.6138 44.8324 45.2231 45.2231C44.8324 45.6138 44.3025 45.8333 43.75 45.8333H6.25C5.69747 45.8333 5.16756 45.6138 4.77686 45.2231C4.38616 44.8324 4.16667 44.3025 4.16667 43.75V6.25Z" fill="white"/>
</svg>
