<svg width="48" height="54" viewBox="0 0 48 54" fill="none" xmlns="http://www.w3.org/2000/svg">
<path d="M40.0853 20.6846H7.63566C5.07546 20.6846 3 22.9467 3 25.7371V45.9474C3 48.7379 5.07546 51 7.63566 51H40.0853C42.6455 51 44.721 48.7379 44.721 45.9474V25.7371C44.721 22.9467 42.6455 20.6846 40.0853 20.6846Z" stroke="white" stroke-width="4.63566" stroke-linecap="round" stroke-linejoin="round"/>
<path d="M9.95361 10.5791C9.95361 8.569 10.6862 6.64122 11.9902 5.21987C13.2943 3.79851 15.0629 3 16.9071 3H30.8141C32.6582 3 34.4269 3.79851 35.7309 5.21987C37.035 6.64122 37.7676 8.569 37.7676 10.5791V20.6846H9.95361V10.5791Z" stroke="white" stroke-width="4.63566" stroke-linecap="round" stroke-linejoin="round"/>
</svg>
