<svg width="56" height="52" viewBox="0 0 56 52" fill="none" xmlns="http://www.w3.org/2000/svg">
<path d="M11.7736 15.254L16.1031 13.9285C16.4443 13.8242 16.8027 13.7881 17.1578 13.8223C17.513 13.8564 17.8579 13.9602 18.1729 14.1277C18.4879 14.2952 18.7669 14.523 18.9938 14.7983C19.2208 15.0736 19.3913 15.3909 19.4956 15.732C19.5999 16.0732 19.636 16.4316 19.6019 16.7867C19.5677 17.1418 19.4639 17.4868 19.2964 17.8018C19.129 18.1168 18.9011 18.3958 18.6258 18.6227C18.3505 18.8497 18.0333 19.0202 17.6921 19.1245L7.30286 22.3024C6.96152 22.4067 6.60295 22.4428 6.24766 22.4085C5.89237 22.3742 5.54733 22.2702 5.23226 22.1024C4.91719 21.9347 4.63828 21.7065 4.41147 21.4308C4.18465 21.1552 4.01439 20.8376 3.91041 20.4961L0.732531 10.1069C0.628199 9.76575 0.592089 9.40737 0.62626 9.05224C0.660431 8.69711 0.764216 8.35219 0.931688 8.03717C1.26991 7.40097 1.84702 6.92517 2.53605 6.71447C3.22507 6.50376 3.96958 6.5754 4.60579 6.91363C4.92081 7.0811 5.19976 7.30898 5.42671 7.58425C5.65366 7.85953 5.82417 8.17681 5.9285 8.51798L7.1236 12.4319C13.6641 2.35779 26.639 -1.97445 38.1582 2.74619C41.6031 4.15821 44.6966 6.30798 47.2213 9.04425C49.7459 11.7805 51.6402 15.0368 52.771 18.584C52.8869 18.9257 52.9336 19.2871 52.9083 19.647C52.883 20.0069 52.7862 20.3582 52.6236 20.6803C52.461 21.0025 52.2359 21.289 51.9614 21.5231C51.6868 21.7573 51.3684 21.9344 51.0247 22.0441C50.6809 22.1538 50.3188 22.1939 49.9593 22.1621C49.5999 22.1303 49.2504 22.0272 48.9313 21.8588C48.6122 21.6904 48.3298 21.4601 48.1007 21.1814C47.8715 20.9027 47.7002 20.5811 47.5967 20.2354C46.4492 16.6321 44.306 13.4268 41.4145 10.9897C38.523 8.55251 35.0011 6.98288 31.2556 6.462C27.51 5.94112 23.6935 6.49024 20.2467 8.04595C16.8 9.60166 13.8635 12.1005 11.7763 15.254H11.7736ZM45.2554 37.5127L40.4343 38.716C40.0852 38.8117 39.7205 38.8367 39.3616 38.7895C39.0027 38.7422 38.6569 38.6238 38.3445 38.441C38.032 38.2582 37.7593 38.0148 37.5422 37.7251C37.3252 37.4354 37.1682 37.1053 37.0806 36.754C36.993 36.4028 36.9765 36.0376 37.032 35.6799C37.0875 35.3222 37.214 34.9793 37.4039 34.6711C37.5939 34.363 37.8435 34.096 38.1382 33.8857C38.4328 33.6754 38.7665 33.5261 39.1197 33.4467L49.0146 30.9777C49.5301 30.7324 50.11 30.6564 50.6714 30.7604C51.2123 30.8316 51.7192 31.0639 52.1262 31.4273C52.5331 31.7906 52.8212 32.2681 52.953 32.7975L55.5822 43.3361C55.7379 44.0283 55.6167 44.7539 55.2444 45.3579C54.872 45.9618 54.2782 46.396 53.5898 46.5678C52.9014 46.7395 52.1732 46.6351 51.5608 46.2768C50.9484 45.9186 50.5005 45.335 50.3129 44.6507L49.4166 41.06C46.8014 44.8234 43.2196 47.8118 39.0485 49.7104C34.8775 51.609 30.2716 52.3475 25.716 51.8482C21.1605 51.3488 16.8239 49.63 13.1632 46.8729C9.50252 44.1158 6.65319 40.4224 4.91538 36.1818L4.20918 34.4598C3.93617 33.7931 3.93918 33.0453 4.21755 32.3808C4.49592 31.7163 5.02686 31.1896 5.69355 30.9166C6.36025 30.6436 7.1081 30.6466 7.77258 30.925C8.43706 31.2033 8.96374 31.7343 9.23675 32.401L9.94295 34.1203C11.3275 37.4987 13.6084 40.4348 16.5394 42.6119C19.4704 44.7889 22.9403 46.1242 26.5747 46.4736C30.209 46.8231 33.8698 46.1734 37.1619 44.5947C40.4541 43.0159 43.2526 40.5682 45.2554 37.5155V37.5127Z" fill="white"/>
</svg>
