<svg width="55" height="56" viewBox="0 0 55 56" fill="none" xmlns="http://www.w3.org/2000/svg">
<path d="M49.2441 29.4825V27.9604V26.4182L53.0896 23.0534C53.7984 22.4286 54.2636 21.5734 54.4029 20.6388C54.5422 19.7042 54.3466 18.7505 53.8507 17.9462L49.124 9.93482C48.7727 9.32648 48.2677 8.8212 47.6596 8.46966C47.0514 8.11813 46.3615 7.9327 45.6591 7.93198C45.2237 7.92864 44.7908 7.99629 44.3772 8.13226L39.5103 9.77459C38.6701 9.21621 37.7936 8.71439 36.8866 8.27246L35.8652 3.22531C35.682 2.30321 35.1804 1.47491 34.4481 0.885395C33.7158 0.295883 32.7994 -0.0172769 31.8595 0.000735905H22.4862C21.5463 -0.0172769 20.6299 0.295883 19.8976 0.885395C19.1653 1.47491 18.6637 2.30321 18.4805 3.22531L17.4591 8.27246C16.5457 8.71429 15.6625 9.21609 14.8153 9.77459L10.0486 8.05215C9.63058 7.94324 9.19772 7.90266 8.76676 7.93198C8.06431 7.9327 7.37441 8.11813 6.76625 8.46966C6.15809 8.8212 5.65307 9.32648 5.30185 9.93482L0.575149 17.9462C0.10766 18.7493 -0.0660571 19.69 0.0837504 20.6071C0.233558 21.5242 0.697569 22.3607 1.39631 22.9733L5.18168 26.4382V29.5026L1.39631 32.8673C0.677831 33.4842 0.201129 34.3357 0.0508024 35.2706C-0.0995243 36.2056 0.0862472 37.1636 0.575149 37.9746L5.30185 45.9859C5.65307 46.5943 6.15809 47.0995 6.76625 47.4511C7.37441 47.8026 8.06431 47.988 8.76676 47.9888C9.20208 47.9921 9.63503 47.9244 10.0486 47.7885L14.9155 46.1461C15.7557 46.7045 16.6323 47.2063 17.5392 47.6483L18.5606 52.6954C18.7438 53.6175 19.2454 54.4458 19.9777 55.0353C20.7101 55.6248 21.6264 55.938 22.5663 55.92H32.0197C32.9597 55.938 33.876 55.6248 34.6083 55.0353C35.3406 54.4458 35.8423 53.6175 36.0254 52.6954L37.0468 47.6483C37.9603 47.2064 38.8435 46.7046 39.6906 46.1461L44.5375 47.7885C44.951 47.9244 45.384 47.9921 45.8193 47.9888C46.5217 47.988 47.2116 47.8026 47.8198 47.4511C48.4279 47.0995 48.933 46.5943 49.2842 45.9859L53.8507 37.9746C54.3182 37.1714 54.4919 36.2308 54.3421 35.3137C54.1923 34.3965 53.7282 33.5601 53.0295 32.9474L49.2441 29.4825ZM45.6591 43.9831L38.7893 41.6598C37.1812 43.0219 35.3432 44.0867 33.3616 44.8042L31.9396 51.9944H22.4862L21.0642 44.8844C19.0982 44.1465 17.2703 43.0835 15.6565 41.7399L8.76676 43.9831L4.04006 35.9717L9.48778 31.1649C9.11745 29.0917 9.11745 26.9692 9.48778 24.896L4.04006 19.949L8.76676 11.9377L15.6365 14.2609C17.2446 12.8988 19.0826 11.834 21.0642 11.1165L22.4862 3.9263H31.9396L33.3616 11.0364C35.3276 11.7743 37.1556 12.8372 38.7693 14.1808L45.6591 11.9377L50.3858 19.949L44.938 24.7558C45.3084 26.829 45.3084 28.9515 44.938 31.0247L50.3858 35.9717L45.6591 43.9831Z" fill="white"/>
<path d="M27.2128 39.9774C24.8361 39.9774 22.5127 39.2726 20.5365 37.9522C18.5603 36.6317 17.0201 34.7549 16.1105 32.5591C15.201 30.3633 14.963 27.9471 15.4267 25.616C15.8904 23.2849 17.0349 21.1437 18.7155 19.4631C20.3961 17.7825 22.5374 16.6379 24.8684 16.1743C27.1995 15.7106 29.6157 15.9486 31.8116 16.8581C34.0074 17.7676 35.8842 19.3079 37.2046 21.2841C38.5251 23.2603 39.2299 25.5837 39.2299 27.9604C39.2459 29.543 38.9461 31.1128 38.3479 32.5781C37.7496 34.0433 36.8651 35.3744 35.746 36.4935C34.6269 37.6126 33.2957 38.4972 31.8305 39.0954C30.3653 39.6936 28.7954 39.9935 27.2128 39.9774ZM27.2128 19.949C26.154 19.9244 25.1012 20.1147 24.1181 20.5086C23.135 20.9025 22.2419 21.4917 21.493 22.2406C20.7441 22.9895 20.1549 23.8825 19.7611 24.8656C19.3672 25.8488 19.1768 26.9016 19.2015 27.9604C19.1768 29.0192 19.3672 30.072 19.7611 31.0552C20.1549 32.0383 20.7441 32.9313 21.493 33.6802C22.2419 34.4291 23.135 35.0183 24.1181 35.4122C25.1012 35.8061 26.154 35.9964 27.2128 35.9718C28.2716 35.9964 29.3245 35.8061 30.3076 35.4122C31.2907 35.0183 32.1837 34.4291 32.9326 33.6802C33.6815 32.9313 34.2707 32.0383 34.6646 31.0552C35.0585 30.072 35.2489 29.0192 35.2242 27.9604C35.2489 26.9016 35.0585 25.8488 34.6646 24.8656C34.2707 23.8825 33.6815 22.9895 32.9326 22.2406C32.1837 21.4917 31.2907 20.9025 30.3076 20.5086C29.3245 20.1147 28.2716 19.9244 27.2128 19.949Z" fill="white"/>
</svg>
