<svg width="50" height="55" viewBox="0 0 50 55" fill="none" xmlns="http://www.w3.org/2000/svg">
<path d="M49.5521 13.4756C49.5064 13.0135 49.3442 12.5705 49.0806 12.1882C48.8171 11.8059 48.4609 11.4967 48.0452 11.2895L26.0475 0.290689C25.6655 0.0995273 25.2442 0 24.817 0C24.3899 0 23.9686 0.0995273 23.5865 0.290689L1.58884 11.2895C1.17439 11.4978 0.819233 11.8074 0.556302 12.1896C0.293371 12.5717 0.131175 13.014 0.0847506 13.4756C0.0545037 13.7698 -2.55772 43.0817 23.702 54.7598C24.0529 54.9181 24.4335 55 24.8184 55C25.2034 55 25.5839 54.9181 25.9348 54.7598C52.1946 43.0817 49.5823 13.7725 49.5521 13.4756ZM24.8184 49.2136C6.20561 40.2165 5.3257 21.0153 5.47694 15.4966L24.8184 5.82586L44.1462 15.4911C44.2479 20.9603 43.2443 40.288 24.8184 49.2136Z" fill="white"/>
<path d="M22.0688 29.1104L15.7637 22.8053L11.8756 26.6934L22.0688 36.8866L37.7614 21.194L33.8733 17.3059L22.0688 29.1104Z" fill="white"/>
</svg>
