<svg width="70" height="53" viewBox="0 0 70 53" fill="none" xmlns="http://www.w3.org/2000/svg">
<path d="M2.19389 2.73591e-07C1.61379 2.73591e-07 1.05744 0.230447 0.647244 0.640644C0.237046 1.05084 0.00659965 1.60719 0.00659965 2.18729C0.00659965 2.7674 0.237046 3.32375 0.647244 3.73394C1.05744 4.14414 1.61379 4.37459 2.19389 4.37459H4.10996C5.57384 4.37377 6.99594 4.86247 8.15009 5.76296C9.30423 6.66345 10.1241 7.924 10.4794 9.34412L12.5179 17.4984H2.19389C1.61379 17.4984 1.05744 17.7288 0.647244 18.139C0.237046 18.5492 0.00659965 19.1055 0.00659965 19.6856C0.00659965 20.2658 0.237046 20.8221 0.647244 21.2323C1.05744 21.6425 1.61379 21.8729 2.19389 21.8729H15.3177C17.058 21.8729 18.727 22.5643 19.9576 23.7949C21.1882 25.0255 21.8795 26.6945 21.8795 28.4348V35.8891C21.8795 36.6328 21.6477 37.324 21.2496 37.8927C20.3524 35.3691 18.5608 33.2624 16.2141 31.9715C13.8675 30.6806 11.1288 30.2953 8.51709 30.8887C5.90536 31.482 3.602 33.0127 2.04341 35.1908C0.48482 37.3688 -0.22071 40.0429 0.0604979 42.7064C0.341705 45.3699 1.59011 47.8377 3.56918 49.6422C5.54825 51.4468 8.1205 52.4627 10.7985 52.4976C13.4766 52.5324 16.0744 51.5837 18.0997 49.8313C20.1251 48.0788 21.4373 45.6443 21.7877 42.9891C23.1256 42.3468 24.2547 41.3395 25.045 40.0833C25.8352 38.8271 26.2544 37.3732 26.2541 35.8891V28.4348C26.254 25.8362 25.3286 23.3225 23.6436 21.3441C21.9586 19.3658 19.6243 18.052 17.0587 17.6383L14.7227 8.28547C14.1313 5.91855 12.7655 3.81733 10.8425 2.316C8.91945 0.814675 6.54964 -0.000545232 4.10996 2.73591e-07H2.19389ZM4.38119 41.5586C4.38119 39.8183 5.07253 38.1492 6.30312 36.9186C7.53371 35.688 9.20275 34.9967 10.9431 34.9967C12.6834 34.9967 14.3524 35.688 15.583 36.9186C16.8136 38.1492 17.5049 39.8183 17.5049 41.5586C17.5049 43.2989 16.8136 44.9679 15.583 46.1985C14.3524 47.4291 12.6834 48.1205 10.9431 48.1205C9.20275 48.1205 7.53371 47.4291 6.30312 46.1985C5.07253 44.9679 4.38119 43.2989 4.38119 41.5586ZM58.5998 8.0055C59.1444 6.91462 59.9822 5.99705 61.0192 5.35571C62.0561 4.71437 63.2513 4.37463 64.4705 4.37459H67.8127C68.3928 4.37459 68.9492 4.14414 69.3594 3.73394C69.7696 3.32375 70 2.7674 70 2.18729C70 1.60719 69.7696 1.05084 69.3594 0.640644C68.9492 0.230447 68.3928 2.73591e-07 67.8127 2.73591e-07H64.4705C62.4395 6.9305e-05 60.4487 0.565694 58.721 1.6335C56.9934 2.7013 55.5972 4.22909 54.6889 6.04568L48.8095 17.8089L38.9142 20.2806C36.5473 20.872 34.446 22.2378 32.9447 24.1608C31.4434 26.0838 30.6282 28.4537 30.6287 30.8933V35.8891C30.6287 36.9232 30.8324 37.9471 31.2281 38.9025C31.6238 39.8578 32.2038 40.7259 32.935 41.4571C33.6662 42.1883 34.5343 42.7683 35.4896 43.164C36.445 43.5597 37.4689 43.7634 38.503 43.7634H39.5966C40.0986 46.2356 41.4399 48.4583 43.3932 50.0549C45.3465 51.6514 47.7916 52.5235 50.3144 52.5235C52.8371 52.5235 55.2822 51.6514 57.2355 50.0549C59.1888 48.4583 60.5301 46.2356 61.0321 43.7634H67.8127C68.3928 43.7634 68.9492 43.5329 69.3594 43.1227C69.7696 42.7125 70 42.1562 70 41.5761C70 40.996 69.7696 40.4396 69.3594 40.0294C68.9492 39.6192 68.3928 39.3888 67.8127 39.3888H61.0321C60.5301 36.9165 59.1888 34.6938 57.2355 33.0973C55.2822 31.5008 52.8371 30.6286 50.3144 30.6286C47.7916 30.6286 45.3465 31.5008 43.3932 33.0973C41.4399 34.6938 40.0986 36.9165 39.5966 39.3888H38.503C37.5748 39.3888 36.6846 39.0201 36.0283 38.3638C35.372 37.7074 35.0033 36.8173 35.0033 35.8891V30.8933C35.0025 29.4295 35.4912 28.0074 36.3917 26.8532C37.2922 25.6991 38.5527 24.8792 39.9728 24.5239L50.5856 21.8729H67.8127C68.3928 21.8729 68.9492 21.6425 69.3594 21.2323C69.7696 20.8221 70 20.2658 70 19.6856C70 19.1055 69.7696 18.5492 69.3594 18.139C68.9492 17.7288 68.3928 17.4984 67.8127 17.4984H53.8534L58.5998 8.0055ZM43.7525 41.5586C43.7525 39.8183 44.4438 38.1492 45.6744 36.9186C46.905 35.688 48.574 34.9967 50.3144 34.9967C52.0547 34.9967 53.7237 35.688 54.9543 36.9186C56.1849 38.1492 56.8762 39.8183 56.8762 41.5586C56.8762 43.2989 56.1849 44.9679 54.9543 46.1985C53.7237 47.4291 52.0547 48.1205 50.3144 48.1205C48.574 48.1205 46.905 47.4291 45.6744 46.1985C44.4438 44.9679 43.7525 43.2989 43.7525 41.5586ZM21.8795 10.9365V6.56188C21.8795 5.98178 22.11 5.42543 22.5202 5.01523C22.9304 4.60503 23.4867 4.37459 24.0668 4.37459C24.6469 4.37459 25.2033 4.60503 25.6135 5.01523C26.0237 5.42543 26.2541 5.98178 26.2541 6.56188V10.9365C26.2541 11.5166 26.0237 12.0729 25.6135 12.4831C25.2033 12.8933 24.6469 13.1238 24.0668 13.1238C23.4867 13.1238 22.9304 12.8933 22.5202 12.4831C22.11 12.0729 21.8795 11.5166 21.8795 10.9365ZM34.3646 16.8597L38.7392 12.4851C39.1499 12.0744 39.3806 11.5173 39.3806 10.9365C39.3806 10.3556 39.1499 9.79858 38.7392 9.38786C38.3285 8.97715 37.7714 8.74641 37.1906 8.74641C36.6098 8.74641 36.0527 8.97715 35.642 9.38786L31.2674 13.7625C30.8567 14.1732 30.626 14.7302 30.626 15.3111C30.626 15.8919 30.8567 16.4489 31.2674 16.8597C31.6781 17.2704 32.2352 17.5011 32.816 17.5011C33.3968 17.5011 33.9539 17.2704 34.3646 16.8597Z" fill="#003478"/>
</svg>
