<svg width="62" height="62" viewBox="0 0 62 62" fill="none" xmlns="http://www.w3.org/2000/svg">
<path d="M42.2 5.8C42.2 5.05739 41.905 4.3452 41.3799 3.8201C40.8548 3.295 40.1426 3 39.4 3H22.6C21.8574 3 21.1452 3.295 20.6201 3.8201C20.095 4.3452 19.8 5.05739 19.8 5.8V19.8H5.8C5.05739 19.8 4.3452 20.095 3.8201 20.6201C3.295 21.1452 3 21.8574 3 22.6V39.4C3 40.1426 3.295 40.8548 3.8201 41.3799C4.3452 41.905 5.05739 42.2 5.8 42.2H19.8V56.2C19.8 56.9426 20.095 57.6548 20.6201 58.1799C21.1452 58.705 21.8574 59 22.6 59H39.4C40.1426 59 40.8548 58.705 41.3799 58.1799C41.905 57.6548 42.2 56.9426 42.2 56.2V42.2H56.2C56.9426 42.2 57.6548 41.905 58.1799 41.3799C58.705 40.8548 59 40.1426 59 39.4V22.6C59 21.8574 58.705 21.1452 58.1799 20.6201C57.6548 20.095 56.9426 19.8 56.2 19.8H42.2V5.8Z" stroke="#003478" stroke-width="4.5" stroke-linecap="round" stroke-linejoin="round"/>
</svg>
