<svg width="55" height="55" viewBox="0 0 55 55" fill="none" xmlns="http://www.w3.org/2000/svg">
<path d="M55 15.4688C55 17.5456 54.3734 20.3117 53.1201 23.7671C51.8669 27.2225 50.1839 30.5615 48.0713 33.7842C46.818 35.7536 45.8244 37.3022 45.0903 38.4302C44.3563 39.5581 43.3984 40.9725 42.2168 42.6733C41.0352 44.3742 40.0326 45.7259 39.209 46.7285C38.3854 47.7311 37.4276 48.8232 36.3354 50.0049C35.2433 51.1865 34.2497 52.0996 33.3545 52.7441C32.4593 53.3887 31.5015 53.9258 30.481 54.3555C29.4604 54.7852 28.4668 55 27.5 55C26.5332 55 25.5396 54.7762 24.519 54.3286C23.4985 53.881 22.5407 53.335 21.6455 52.6904C20.7503 52.0459 19.7477 51.1239 18.6377 49.9243C17.5277 48.7248 16.5609 47.6237 15.7373 46.6211C14.9137 45.6185 13.9111 44.2668 12.7295 42.5659C11.5479 40.8651 10.59 39.4596 9.85596 38.3496C9.12191 37.2396 8.14616 35.7178 6.92871 33.7842C4.70866 30.3825 2.99886 27.0076 1.79932 23.6597C0.599772 20.3117 0 17.5814 0 15.4688C0 11.2077 1.51286 7.56429 4.53857 4.53857C7.56429 1.51286 11.2077 0 15.4688 0C17.8678 0 20.1058 0.510254 22.1826 1.53076C24.2594 2.55127 26.0319 3.95671 27.5 5.74707C28.9323 3.95671 30.6958 2.55127 32.7905 1.53076C34.8853 0.510254 37.1322 0 39.5312 0C43.7923 0 47.4357 1.51286 50.4614 4.53857C53.4871 7.56429 55 11.2077 55 15.4688ZM39.5312 6.875C38.0632 6.875 36.5413 7.38525 34.9658 8.40576C33.3903 9.42627 32.0475 10.6348 30.9375 12.0312C30.8301 12.1745 30.6242 12.4967 30.3198 12.998C30.0155 13.4993 29.7648 13.9022 29.5679 14.2065C29.3709 14.5109 29.0755 14.7974 28.6816 15.0659C28.2878 15.3345 27.8939 15.4688 27.5 15.4688C27.1061 15.4688 26.7122 15.3345 26.3184 15.0659C25.9245 14.7974 25.6291 14.5199 25.4321 14.2334C25.2352 13.9469 24.9756 13.5441 24.6533 13.0249C24.3311 12.5057 24.1341 12.1745 24.0625 12.0312C22.9525 10.6348 21.6097 9.42627 20.0342 8.40576C18.4587 7.38525 16.9368 6.875 15.4688 6.875C13.1055 6.875 11.0824 7.71647 9.39941 9.39941C7.71647 11.0824 6.875 13.1055 6.875 15.4688C6.69596 17.653 7.26888 20.3385 8.59375 23.5254C9.91862 26.7122 11.6374 29.8633 13.75 32.9785C14.3945 33.9453 15.1912 35.1807 16.1401 36.6846C17.089 38.1885 17.8589 39.397 18.4497 40.3101C19.0405 41.2231 19.7477 42.2347 20.5713 43.3447C21.3949 44.4548 22.1379 45.3141 22.8003 45.9229C23.4627 46.5316 24.2057 47.0508 25.0293 47.4805C25.8529 47.9102 26.6764 48.125 27.5 48.125C28.3236 48.125 29.1471 47.9191 29.9707 47.5073C30.7943 47.0955 31.5283 46.5853 32.1729 45.9766C32.8174 45.3678 33.5514 44.5085 34.375 43.3984C35.1986 42.2884 35.9058 41.2769 36.4966 40.3638C37.0874 39.4507 37.8662 38.2422 38.833 36.7383L41.25 32.9785C43.3626 29.8633 45.0814 26.7122 46.4062 23.5254C47.7311 20.3385 48.304 17.653 48.125 15.4688C48.125 13.1055 47.2835 11.0824 45.6006 9.39941C43.9176 7.71647 41.8945 6.875 39.5312 6.875Z" fill="#003478"/>
</svg>
