<svg width="65" height="66" viewBox="0 0 65 66" fill="none" xmlns="http://www.w3.org/2000/svg">
<path d="M3.24938 35.7515H6.49945V58.502C6.49945 62.0868 9.41477 65.0021 12.9996 65.0021H52.0005C55.5853 65.0021 58.5006 62.0868 58.5006 58.502V35.7515H61.7507C62.3934 35.7513 63.0216 35.5606 63.556 35.2035C64.0903 34.8464 64.5068 34.3388 64.7527 33.745C64.9986 33.1512 65.063 32.4979 64.9377 31.8675C64.8123 31.2372 64.5029 30.6581 64.0485 30.2036L34.7978 0.952925C34.4963 0.650845 34.1381 0.411191 33.7438 0.247678C33.3495 0.0841641 32.9269 0 32.5 0C32.0732 0 31.6505 0.0841641 31.2563 0.247678C30.862 0.411191 30.5038 0.650845 30.2022 0.952925L0.951579 30.2036C0.497188 30.6581 0.18776 31.2372 0.0624127 31.8675C-0.0629347 32.4979 0.00142662 33.1512 0.24736 33.745C0.493293 34.3388 0.909755 34.8464 1.4441 35.2035C1.97844 35.5606 2.60668 35.7513 3.24938 35.7515ZM25.9999 58.502V42.2516H39.0002V58.502H25.9999ZM32.5 7.84633L52.0005 27.3468V42.2516L52.0037 58.502H45.5003V42.2516C45.5003 38.6668 42.585 35.7515 39.0002 35.7515H25.9999C22.4151 35.7515 19.4997 38.6668 19.4997 42.2516V58.502H12.9996V27.3468L32.5 7.84633Z" fill="#003478"/>
</svg>
